<mxfile host="Electron" modified="2024-04-07T21:40:42.568Z" agent="Mozilla/5.0 (Windows NT 10.0; Win64; x64) AppleWebKit/537.36 (KHTML, like Gecko) draw.io/24.1.0 Chrome/120.0.6099.109 Electron/28.1.0 Safari/537.36" etag="EKKZJG76bKM2IqtC_ks5" version="24.1.0" type="device">
  <diagram name="Page-1" id="KRlrXfM0Q7CNJbnPvyT5">
    <mxGraphModel dx="5622" dy="2076" grid="1" gridSize="10" guides="1" tooltips="1" connect="1" arrows="1" fold="1" page="1" pageScale="1" pageWidth="850" pageHeight="1100" math="0" shadow="0">
      <root>
        <mxCell id="0" />
        <mxCell id="1" parent="0" />
        <mxCell id="N5ksJc3kJE1z810URzoz-3" value="" style="edgeStyle=orthogonalEdgeStyle;rounded=0;orthogonalLoop=1;jettySize=auto;html=1;" edge="1" parent="1" source="N5ksJc3kJE1z810URzoz-1" target="N5ksJc3kJE1z810URzoz-2">
          <mxGeometry relative="1" as="geometry" />
        </mxCell>
        <mxCell id="N5ksJc3kJE1z810URzoz-1" value="Start" style="ellipse;whiteSpace=wrap;html=1;" vertex="1" parent="1">
          <mxGeometry x="340" y="20" width="120" height="80" as="geometry" />
        </mxCell>
        <mxCell id="N5ksJc3kJE1z810URzoz-5" value="" style="edgeStyle=orthogonalEdgeStyle;rounded=0;orthogonalLoop=1;jettySize=auto;html=1;" edge="1" parent="1" source="N5ksJc3kJE1z810URzoz-2" target="N5ksJc3kJE1z810URzoz-4">
          <mxGeometry relative="1" as="geometry" />
        </mxCell>
        <mxCell id="N5ksJc3kJE1z810URzoz-2" value="Enter your ID number and phone number&amp;nbsp;" style="shape=parallelogram;perimeter=parallelogramPerimeter;whiteSpace=wrap;html=1;fixedSize=1;" vertex="1" parent="1">
          <mxGeometry x="265" y="140" width="270" height="110" as="geometry" />
        </mxCell>
        <mxCell id="N5ksJc3kJE1z810URzoz-9" value="" style="edgeStyle=orthogonalEdgeStyle;rounded=0;orthogonalLoop=1;jettySize=auto;html=1;" edge="1" parent="1" source="N5ksJc3kJE1z810URzoz-4" target="N5ksJc3kJE1z810URzoz-8">
          <mxGeometry relative="1" as="geometry" />
        </mxCell>
        <mxCell id="N5ksJc3kJE1z810URzoz-14" value="" style="edgeStyle=orthogonalEdgeStyle;rounded=0;orthogonalLoop=1;jettySize=auto;html=1;" edge="1" parent="1" source="N5ksJc3kJE1z810URzoz-4" target="N5ksJc3kJE1z810URzoz-13">
          <mxGeometry relative="1" as="geometry">
            <Array as="points">
              <mxPoint x="300" y="369" />
              <mxPoint x="300" y="369" />
            </Array>
          </mxGeometry>
        </mxCell>
        <mxCell id="N5ksJc3kJE1z810URzoz-4" value="ID number and phione verification&amp;nbsp;" style="rhombus;whiteSpace=wrap;html=1;" vertex="1" parent="1">
          <mxGeometry x="320" y="300" width="160" height="135" as="geometry" />
        </mxCell>
        <mxCell id="N5ksJc3kJE1z810URzoz-10" style="edgeStyle=orthogonalEdgeStyle;rounded=0;orthogonalLoop=1;jettySize=auto;html=1;exitX=0.5;exitY=0;exitDx=0;exitDy=0;entryX=0.979;entryY=0.57;entryDx=0;entryDy=0;entryPerimeter=0;" edge="1" parent="1" source="N5ksJc3kJE1z810URzoz-8" target="N5ksJc3kJE1z810URzoz-2">
          <mxGeometry relative="1" as="geometry">
            <mxPoint x="640" y="200" as="targetPoint" />
            <Array as="points">
              <mxPoint x="640" y="200" />
              <mxPoint x="529" y="200" />
            </Array>
          </mxGeometry>
        </mxCell>
        <mxCell id="N5ksJc3kJE1z810URzoz-12" value="" style="edgeStyle=orthogonalEdgeStyle;rounded=0;orthogonalLoop=1;jettySize=auto;html=1;" edge="1" parent="1" source="N5ksJc3kJE1z810URzoz-8" target="N5ksJc3kJE1z810URzoz-11">
          <mxGeometry relative="1" as="geometry" />
        </mxCell>
        <mxCell id="N5ksJc3kJE1z810URzoz-8" value="Attempts" style="whiteSpace=wrap;html=1;" vertex="1" parent="1">
          <mxGeometry x="580" y="337.5" width="120" height="60" as="geometry" />
        </mxCell>
        <mxCell id="N5ksJc3kJE1z810URzoz-11" value="End" style="ellipse;whiteSpace=wrap;html=1;" vertex="1" parent="1">
          <mxGeometry x="800" y="327.5" width="120" height="80" as="geometry" />
        </mxCell>
        <mxCell id="N5ksJc3kJE1z810URzoz-16" value="" style="edgeStyle=orthogonalEdgeStyle;rounded=0;orthogonalLoop=1;jettySize=auto;html=1;" edge="1" parent="1" source="N5ksJc3kJE1z810URzoz-13" target="N5ksJc3kJE1z810URzoz-15">
          <mxGeometry relative="1" as="geometry" />
        </mxCell>
        <mxCell id="N5ksJc3kJE1z810URzoz-13" value="Print Verified" style="shape=parallelogram;perimeter=parallelogramPerimeter;whiteSpace=wrap;html=1;fixedSize=1;" vertex="1" parent="1">
          <mxGeometry x="100" y="337.5" width="120" height="62.5" as="geometry" />
        </mxCell>
        <mxCell id="N5ksJc3kJE1z810URzoz-18" value="" style="edgeStyle=orthogonalEdgeStyle;rounded=0;orthogonalLoop=1;jettySize=auto;html=1;" edge="1" parent="1" source="N5ksJc3kJE1z810URzoz-15" target="N5ksJc3kJE1z810URzoz-17">
          <mxGeometry relative="1" as="geometry" />
        </mxCell>
        <mxCell id="N5ksJc3kJE1z810URzoz-15" value="Enter Password" style="shape=parallelogram;perimeter=parallelogramPerimeter;whiteSpace=wrap;html=1;fixedSize=1;" vertex="1" parent="1">
          <mxGeometry x="100" y="480" width="120" height="62.5" as="geometry" />
        </mxCell>
        <mxCell id="N5ksJc3kJE1z810URzoz-21" value="" style="edgeStyle=orthogonalEdgeStyle;rounded=0;orthogonalLoop=1;jettySize=auto;html=1;" edge="1" parent="1" source="N5ksJc3kJE1z810URzoz-17" target="N5ksJc3kJE1z810URzoz-20">
          <mxGeometry relative="1" as="geometry" />
        </mxCell>
        <mxCell id="N5ksJc3kJE1z810URzoz-26" value="" style="edgeStyle=orthogonalEdgeStyle;rounded=0;orthogonalLoop=1;jettySize=auto;html=1;" edge="1" parent="1" source="N5ksJc3kJE1z810URzoz-17" target="N5ksJc3kJE1z810URzoz-25">
          <mxGeometry relative="1" as="geometry" />
        </mxCell>
        <mxCell id="N5ksJc3kJE1z810URzoz-17" value="Confirm password&amp;nbsp;" style="rhombus;whiteSpace=wrap;html=1;" vertex="1" parent="1">
          <mxGeometry x="90" y="600" width="140" height="133.75" as="geometry" />
        </mxCell>
        <mxCell id="N5ksJc3kJE1z810URzoz-32" value="" style="edgeStyle=orthogonalEdgeStyle;rounded=0;orthogonalLoop=1;jettySize=auto;html=1;" edge="1" parent="1" source="N5ksJc3kJE1z810URzoz-20" target="N5ksJc3kJE1z810URzoz-31">
          <mxGeometry relative="1" as="geometry" />
        </mxCell>
        <mxCell id="N5ksJc3kJE1z810URzoz-20" value="Send OTP(SMS) for Verification" style="whiteSpace=wrap;html=1;" vertex="1" parent="1">
          <mxGeometry x="320" y="636.875" width="120" height="60" as="geometry" />
        </mxCell>
        <mxCell id="N5ksJc3kJE1z810URzoz-22" value="True" style="text;html=1;align=center;verticalAlign=middle;resizable=0;points=[];autosize=1;strokeColor=none;fillColor=none;" vertex="1" parent="1">
          <mxGeometry x="225" y="638" width="50" height="30" as="geometry" />
        </mxCell>
        <mxCell id="N5ksJc3kJE1z810URzoz-23" value="True" style="text;html=1;align=center;verticalAlign=middle;resizable=0;points=[];autosize=1;strokeColor=none;fillColor=none;" vertex="1" parent="1">
          <mxGeometry x="235" y="368" width="50" height="30" as="geometry" />
        </mxCell>
        <mxCell id="N5ksJc3kJE1z810URzoz-24" value="False" style="text;html=1;align=center;verticalAlign=middle;resizable=0;points=[];autosize=1;strokeColor=none;fillColor=none;" vertex="1" parent="1">
          <mxGeometry x="485" y="368" width="50" height="30" as="geometry" />
        </mxCell>
        <mxCell id="N5ksJc3kJE1z810URzoz-28" style="edgeStyle=orthogonalEdgeStyle;rounded=0;orthogonalLoop=1;jettySize=auto;html=1;exitX=0.5;exitY=0;exitDx=0;exitDy=0;entryX=0;entryY=0.25;entryDx=0;entryDy=0;" edge="1" parent="1" source="N5ksJc3kJE1z810URzoz-25" target="N5ksJc3kJE1z810URzoz-15">
          <mxGeometry relative="1" as="geometry">
            <mxPoint x="-60" y="500" as="targetPoint" />
            <Array as="points">
              <mxPoint x="-60" y="499" />
            </Array>
          </mxGeometry>
        </mxCell>
        <mxCell id="N5ksJc3kJE1z810URzoz-30" value="" style="edgeStyle=orthogonalEdgeStyle;rounded=0;orthogonalLoop=1;jettySize=auto;html=1;" edge="1" parent="1" source="N5ksJc3kJE1z810URzoz-25" target="N5ksJc3kJE1z810URzoz-29">
          <mxGeometry relative="1" as="geometry" />
        </mxCell>
        <mxCell id="N5ksJc3kJE1z810URzoz-25" value="Attempts" style="whiteSpace=wrap;html=1;" vertex="1" parent="1">
          <mxGeometry x="-120" y="628.43" width="120" height="76.88" as="geometry" />
        </mxCell>
        <mxCell id="N5ksJc3kJE1z810URzoz-27" value="False" style="text;html=1;align=center;verticalAlign=middle;resizable=0;points=[];autosize=1;strokeColor=none;fillColor=none;" vertex="1" parent="1">
          <mxGeometry x="15" y="638" width="50" height="30" as="geometry" />
        </mxCell>
        <mxCell id="N5ksJc3kJE1z810URzoz-29" value="End" style="ellipse;whiteSpace=wrap;html=1;" vertex="1" parent="1">
          <mxGeometry x="-120" y="783.75" width="120" height="80" as="geometry" />
        </mxCell>
        <mxCell id="N5ksJc3kJE1z810URzoz-36" value="" style="edgeStyle=orthogonalEdgeStyle;rounded=0;orthogonalLoop=1;jettySize=auto;html=1;" edge="1" parent="1" source="N5ksJc3kJE1z810URzoz-31" target="N5ksJc3kJE1z810URzoz-35">
          <mxGeometry relative="1" as="geometry" />
        </mxCell>
        <mxCell id="N5ksJc3kJE1z810URzoz-39" value="" style="edgeStyle=orthogonalEdgeStyle;rounded=0;orthogonalLoop=1;jettySize=auto;html=1;" edge="1" parent="1" source="N5ksJc3kJE1z810URzoz-31" target="N5ksJc3kJE1z810URzoz-38">
          <mxGeometry relative="1" as="geometry" />
        </mxCell>
        <mxCell id="N5ksJc3kJE1z810URzoz-31" value="Enter OTP" style="rhombus;whiteSpace=wrap;html=1;" vertex="1" parent="1">
          <mxGeometry x="540" y="626.875" width="80" height="80" as="geometry" />
        </mxCell>
        <mxCell id="N5ksJc3kJE1z810URzoz-37" style="edgeStyle=orthogonalEdgeStyle;rounded=0;orthogonalLoop=1;jettySize=auto;html=1;exitX=0;exitY=0.5;exitDx=0;exitDy=0;" edge="1" parent="1" source="N5ksJc3kJE1z810URzoz-35">
          <mxGeometry relative="1" as="geometry">
            <mxPoint x="370" y="700" as="targetPoint" />
          </mxGeometry>
        </mxCell>
        <mxCell id="N5ksJc3kJE1z810URzoz-120" style="edgeStyle=orthogonalEdgeStyle;rounded=0;orthogonalLoop=1;jettySize=auto;html=1;exitX=0.5;exitY=1;exitDx=0;exitDy=0;" edge="1" parent="1" source="N5ksJc3kJE1z810URzoz-35">
          <mxGeometry relative="1" as="geometry">
            <mxPoint x="360" y="900" as="targetPoint" />
          </mxGeometry>
        </mxCell>
        <mxCell id="N5ksJc3kJE1z810URzoz-35" value="Attempts" style="whiteSpace=wrap;html=1;" vertex="1" parent="1">
          <mxGeometry x="520" y="796.875" width="120" height="60" as="geometry" />
        </mxCell>
        <mxCell id="N5ksJc3kJE1z810URzoz-47" value="" style="edgeStyle=orthogonalEdgeStyle;rounded=0;orthogonalLoop=1;jettySize=auto;html=1;" edge="1" parent="1" source="N5ksJc3kJE1z810URzoz-38" target="N5ksJc3kJE1z810URzoz-46">
          <mxGeometry relative="1" as="geometry" />
        </mxCell>
        <mxCell id="N5ksJc3kJE1z810URzoz-49" value="" style="edgeStyle=orthogonalEdgeStyle;rounded=0;orthogonalLoop=1;jettySize=auto;html=1;" edge="1" parent="1" source="N5ksJc3kJE1z810URzoz-38" target="N5ksJc3kJE1z810URzoz-48">
          <mxGeometry relative="1" as="geometry" />
        </mxCell>
        <mxCell id="N5ksJc3kJE1z810URzoz-38" value="Enter passcode" style="rhombus;whiteSpace=wrap;html=1;" vertex="1" parent="1">
          <mxGeometry x="800" y="615.31" width="100" height="103.13" as="geometry" />
        </mxCell>
        <mxCell id="N5ksJc3kJE1z810URzoz-51" value="" style="edgeStyle=orthogonalEdgeStyle;rounded=0;orthogonalLoop=1;jettySize=auto;html=1;" edge="1" parent="1" source="N5ksJc3kJE1z810URzoz-46" target="N5ksJc3kJE1z810URzoz-50">
          <mxGeometry relative="1" as="geometry" />
        </mxCell>
        <mxCell id="N5ksJc3kJE1z810URzoz-46" value="Attempts" style="whiteSpace=wrap;html=1;" vertex="1" parent="1">
          <mxGeometry x="990" y="636.865" width="120" height="60" as="geometry" />
        </mxCell>
        <mxCell id="N5ksJc3kJE1z810URzoz-52" style="edgeStyle=orthogonalEdgeStyle;rounded=0;orthogonalLoop=1;jettySize=auto;html=1;exitX=0;exitY=0;exitDx=0;exitDy=0;" edge="1" parent="1" source="N5ksJc3kJE1z810URzoz-48">
          <mxGeometry relative="1" as="geometry">
            <mxPoint x="570" y="961" as="targetPoint" />
          </mxGeometry>
        </mxCell>
        <mxCell id="N5ksJc3kJE1z810URzoz-54" style="edgeStyle=orthogonalEdgeStyle;rounded=0;orthogonalLoop=1;jettySize=auto;html=1;exitX=0;exitY=0.75;exitDx=0;exitDy=0;" edge="1" parent="1" source="N5ksJc3kJE1z810URzoz-48">
          <mxGeometry relative="1" as="geometry">
            <mxPoint x="560" y="1049" as="targetPoint" />
          </mxGeometry>
        </mxCell>
        <mxCell id="N5ksJc3kJE1z810URzoz-60" style="edgeStyle=orthogonalEdgeStyle;rounded=0;orthogonalLoop=1;jettySize=auto;html=1;exitX=1;exitY=0.25;exitDx=0;exitDy=0;" edge="1" parent="1" source="N5ksJc3kJE1z810URzoz-48">
          <mxGeometry relative="1" as="geometry">
            <mxPoint x="970" y="980.7777777777778" as="targetPoint" />
          </mxGeometry>
        </mxCell>
        <mxCell id="N5ksJc3kJE1z810URzoz-75" style="edgeStyle=orthogonalEdgeStyle;rounded=0;orthogonalLoop=1;jettySize=auto;html=1;exitX=1;exitY=0.75;exitDx=0;exitDy=0;" edge="1" parent="1">
          <mxGeometry relative="1" as="geometry">
            <mxPoint x="970" y="1180" as="targetPoint" />
            <mxPoint x="809.999230769231" y="1070.0461538461539" as="sourcePoint" />
            <Array as="points">
              <mxPoint x="880" y="1071" />
            </Array>
          </mxGeometry>
        </mxCell>
        <mxCell id="N5ksJc3kJE1z810URzoz-176" style="edgeStyle=orthogonalEdgeStyle;rounded=0;orthogonalLoop=1;jettySize=auto;html=1;exitX=1;exitY=1;exitDx=0;exitDy=0;entryX=0;entryY=0;entryDx=0;entryDy=0;" edge="1" parent="1" source="N5ksJc3kJE1z810URzoz-48" target="N5ksJc3kJE1z810URzoz-71">
          <mxGeometry relative="1" as="geometry" />
        </mxCell>
        <mxCell id="N5ksJc3kJE1z810URzoz-48" value="Home page" style="shape=parallelogram;perimeter=parallelogramPerimeter;whiteSpace=wrap;html=1;fixedSize=1;size=35;" vertex="1" parent="1">
          <mxGeometry x="745" y="940" width="210" height="150" as="geometry" />
        </mxCell>
        <mxCell id="N5ksJc3kJE1z810URzoz-50" value="End" style="ellipse;whiteSpace=wrap;html=1;" vertex="1" parent="1">
          <mxGeometry x="990" y="790" width="120" height="80" as="geometry" />
        </mxCell>
        <mxCell id="N5ksJc3kJE1z810URzoz-53" value="Notification" style="shape=parallelogram;perimeter=parallelogramPerimeter;whiteSpace=wrap;html=1;fixedSize=1;" vertex="1" parent="1">
          <mxGeometry x="460" y="930" width="120" height="60" as="geometry" />
        </mxCell>
        <mxCell id="N5ksJc3kJE1z810URzoz-57" value="" style="edgeStyle=orthogonalEdgeStyle;rounded=0;orthogonalLoop=1;jettySize=auto;html=1;" edge="1" parent="1" source="N5ksJc3kJE1z810URzoz-55" target="N5ksJc3kJE1z810URzoz-56">
          <mxGeometry relative="1" as="geometry" />
        </mxCell>
        <mxCell id="N5ksJc3kJE1z810URzoz-59" value="" style="edgeStyle=orthogonalEdgeStyle;rounded=0;orthogonalLoop=1;jettySize=auto;html=1;" edge="1" parent="1" source="N5ksJc3kJE1z810URzoz-55" target="N5ksJc3kJE1z810URzoz-58">
          <mxGeometry relative="1" as="geometry" />
        </mxCell>
        <mxCell id="N5ksJc3kJE1z810URzoz-55" value="My Cards" style="shape=parallelogram;perimeter=parallelogramPerimeter;whiteSpace=wrap;html=1;fixedSize=1;" vertex="1" parent="1">
          <mxGeometry x="450" y="1020" width="120" height="60" as="geometry" />
        </mxCell>
        <mxCell id="N5ksJc3kJE1z810URzoz-56" value="My LInked cards" style="shape=parallelogram;perimeter=parallelogramPerimeter;whiteSpace=wrap;html=1;fixedSize=1;" vertex="1" parent="1">
          <mxGeometry x="250" y="1020" width="120" height="60" as="geometry" />
        </mxCell>
        <mxCell id="N5ksJc3kJE1z810URzoz-58" value="Add new card" style="shape=parallelogram;perimeter=parallelogramPerimeter;whiteSpace=wrap;html=1;fixedSize=1;" vertex="1" parent="1">
          <mxGeometry x="450" y="1160" width="120" height="60" as="geometry" />
        </mxCell>
        <mxCell id="N5ksJc3kJE1z810URzoz-63" value="" style="edgeStyle=orthogonalEdgeStyle;rounded=0;orthogonalLoop=1;jettySize=auto;html=1;" edge="1" parent="1" source="N5ksJc3kJE1z810URzoz-61" target="N5ksJc3kJE1z810URzoz-62">
          <mxGeometry relative="1" as="geometry" />
        </mxCell>
        <mxCell id="N5ksJc3kJE1z810URzoz-61" value="Home Tab" style="shape=parallelogram;perimeter=parallelogramPerimeter;whiteSpace=wrap;html=1;fixedSize=1;" vertex="1" parent="1">
          <mxGeometry x="960" y="950" width="120" height="60" as="geometry" />
        </mxCell>
        <mxCell id="N5ksJc3kJE1z810URzoz-62" value="Explore the app to get the best expeprience!!" style="whiteSpace=wrap;html=1;" vertex="1" parent="1">
          <mxGeometry x="1160" y="870" width="120" height="160" as="geometry" />
        </mxCell>
        <mxCell id="N5ksJc3kJE1z810URzoz-73" value="" style="edgeStyle=orthogonalEdgeStyle;rounded=0;orthogonalLoop=1;jettySize=auto;html=1;" edge="1" parent="1" source="N5ksJc3kJE1z810URzoz-71" target="N5ksJc3kJE1z810URzoz-72">
          <mxGeometry relative="1" as="geometry" />
        </mxCell>
        <mxCell id="N5ksJc3kJE1z810URzoz-71" value="Transactions" style="shape=parallelogram;perimeter=parallelogramPerimeter;whiteSpace=wrap;html=1;fixedSize=1;" vertex="1" parent="1">
          <mxGeometry x="980" y="1050" width="120" height="60" as="geometry" />
        </mxCell>
        <mxCell id="N5ksJc3kJE1z810URzoz-72" value="Transaction history" style="shape=parallelogram;perimeter=parallelogramPerimeter;whiteSpace=wrap;html=1;fixedSize=1;" vertex="1" parent="1">
          <mxGeometry x="1160" y="1050" width="140" height="60" as="geometry" />
        </mxCell>
        <mxCell id="N5ksJc3kJE1z810URzoz-78" value="" style="edgeStyle=orthogonalEdgeStyle;rounded=0;orthogonalLoop=1;jettySize=auto;html=1;" edge="1" parent="1" source="N5ksJc3kJE1z810URzoz-76" target="N5ksJc3kJE1z810URzoz-77">
          <mxGeometry relative="1" as="geometry" />
        </mxCell>
        <mxCell id="N5ksJc3kJE1z810URzoz-76" value="MORE" style="shape=parallelogram;perimeter=parallelogramPerimeter;whiteSpace=wrap;html=1;fixedSize=1;" vertex="1" parent="1">
          <mxGeometry x="960" y="1150" width="120" height="60" as="geometry" />
        </mxCell>
        <mxCell id="N5ksJc3kJE1z810URzoz-104" style="edgeStyle=orthogonalEdgeStyle;rounded=0;orthogonalLoop=1;jettySize=auto;html=1;exitX=0.25;exitY=1;exitDx=0;exitDy=0;" edge="1" parent="1">
          <mxGeometry relative="1" as="geometry">
            <mxPoint x="1219.5499999999995" y="1380" as="targetPoint" />
            <mxPoint x="1219.55" y="1290" as="sourcePoint" />
            <Array as="points">
              <mxPoint x="1219.55" y="1335" />
              <mxPoint x="1219.55" y="1335" />
            </Array>
          </mxGeometry>
        </mxCell>
        <mxCell id="N5ksJc3kJE1z810URzoz-148" style="edgeStyle=orthogonalEdgeStyle;rounded=0;orthogonalLoop=1;jettySize=auto;html=1;exitX=0.75;exitY=0;exitDx=0;exitDy=0;" edge="1" parent="1" source="N5ksJc3kJE1z810URzoz-77">
          <mxGeometry relative="1" as="geometry">
            <mxPoint x="1340" y="1130" as="targetPoint" />
          </mxGeometry>
        </mxCell>
        <mxCell id="N5ksJc3kJE1z810URzoz-152" style="edgeStyle=orthogonalEdgeStyle;rounded=0;orthogonalLoop=1;jettySize=auto;html=1;exitX=0.25;exitY=1;exitDx=0;exitDy=0;entryX=0.5;entryY=0;entryDx=0;entryDy=0;" edge="1" parent="1" source="N5ksJc3kJE1z810URzoz-77" target="N5ksJc3kJE1z810URzoz-154">
          <mxGeometry relative="1" as="geometry">
            <mxPoint x="1170" y="1430" as="targetPoint" />
          </mxGeometry>
        </mxCell>
        <mxCell id="N5ksJc3kJE1z810URzoz-153" style="edgeStyle=orthogonalEdgeStyle;rounded=0;orthogonalLoop=1;jettySize=auto;html=1;exitX=0.5;exitY=1;exitDx=0;exitDy=0;entryX=0.5;entryY=0;entryDx=0;entryDy=0;" edge="1" parent="1" source="N5ksJc3kJE1z810URzoz-77" target="N5ksJc3kJE1z810URzoz-145">
          <mxGeometry relative="1" as="geometry" />
        </mxCell>
        <mxCell id="N5ksJc3kJE1z810URzoz-162" style="edgeStyle=orthogonalEdgeStyle;rounded=0;orthogonalLoop=1;jettySize=auto;html=1;exitX=1;exitY=1;exitDx=0;exitDy=0;entryX=0;entryY=0.75;entryDx=0;entryDy=0;" edge="1" parent="1" source="N5ksJc3kJE1z810URzoz-77" target="N5ksJc3kJE1z810URzoz-116">
          <mxGeometry relative="1" as="geometry">
            <Array as="points">
              <mxPoint x="1436" y="1384" />
            </Array>
          </mxGeometry>
        </mxCell>
        <mxCell id="N5ksJc3kJE1z810URzoz-163" style="edgeStyle=orthogonalEdgeStyle;rounded=0;orthogonalLoop=1;jettySize=auto;html=1;exitX=1;exitY=0.25;exitDx=0;exitDy=0;" edge="1" parent="1" source="N5ksJc3kJE1z810URzoz-77">
          <mxGeometry relative="1" as="geometry">
            <mxPoint x="1630" y="1291.6363636363635" as="targetPoint" />
          </mxGeometry>
        </mxCell>
        <mxCell id="N5ksJc3kJE1z810URzoz-165" style="edgeStyle=orthogonalEdgeStyle;rounded=0;orthogonalLoop=1;jettySize=auto;html=1;exitX=0;exitY=0.5;exitDx=0;exitDy=0;" edge="1" parent="1" source="N5ksJc3kJE1z810URzoz-77" target="N5ksJc3kJE1z810URzoz-124">
          <mxGeometry relative="1" as="geometry" />
        </mxCell>
        <mxCell id="N5ksJc3kJE1z810URzoz-168" style="edgeStyle=orthogonalEdgeStyle;rounded=0;orthogonalLoop=1;jettySize=auto;html=1;exitX=1;exitY=0.75;exitDx=0;exitDy=0;" edge="1" parent="1" source="N5ksJc3kJE1z810URzoz-77">
          <mxGeometry relative="1" as="geometry">
            <mxPoint x="1780" y="1470" as="targetPoint" />
          </mxGeometry>
        </mxCell>
        <mxCell id="N5ksJc3kJE1z810URzoz-170" style="edgeStyle=orthogonalEdgeStyle;rounded=0;orthogonalLoop=1;jettySize=auto;html=1;exitX=1;exitY=0;exitDx=0;exitDy=0;entryX=0;entryY=0.25;entryDx=0;entryDy=0;" edge="1" parent="1" source="N5ksJc3kJE1z810URzoz-77" target="N5ksJc3kJE1z810URzoz-118">
          <mxGeometry relative="1" as="geometry" />
        </mxCell>
        <mxCell id="N5ksJc3kJE1z810URzoz-77" value="Profile" style="shape=parallelogram;perimeter=parallelogramPerimeter;whiteSpace=wrap;html=1;fixedSize=1;" vertex="1" parent="1">
          <mxGeometry x="1120" y="1255" width="240" height="140" as="geometry" />
        </mxCell>
        <mxCell id="N5ksJc3kJE1z810URzoz-84" value="" style="edgeStyle=orthogonalEdgeStyle;rounded=0;orthogonalLoop=1;jettySize=auto;html=1;" edge="1" parent="1" source="N5ksJc3kJE1z810URzoz-81" target="N5ksJc3kJE1z810URzoz-83">
          <mxGeometry relative="1" as="geometry" />
        </mxCell>
        <mxCell id="N5ksJc3kJE1z810URzoz-81" value="OTP verification" style="rhombus;whiteSpace=wrap;html=1;" vertex="1" parent="1">
          <mxGeometry x="1850" y="1240" width="160" height="110" as="geometry" />
        </mxCell>
        <mxCell id="N5ksJc3kJE1z810URzoz-83" value="Conduct information updated sufficiently" style="whiteSpace=wrap;html=1;" vertex="1" parent="1">
          <mxGeometry x="1870" y="1060" width="120" height="60" as="geometry" />
        </mxCell>
        <mxCell id="N5ksJc3kJE1z810URzoz-85" value="True" style="text;html=1;align=center;verticalAlign=middle;resizable=0;points=[];autosize=1;strokeColor=none;fillColor=none;" vertex="1" parent="1">
          <mxGeometry x="1940" y="1175" width="50" height="30" as="geometry" />
        </mxCell>
        <mxCell id="N5ksJc3kJE1z810URzoz-174" style="edgeStyle=orthogonalEdgeStyle;rounded=0;orthogonalLoop=1;jettySize=auto;html=1;exitX=1;exitY=0.5;exitDx=0;exitDy=0;entryX=-0.023;entryY=0.632;entryDx=0;entryDy=0;entryPerimeter=0;" edge="1" parent="1" source="N5ksJc3kJE1z810URzoz-86" target="N5ksJc3kJE1z810URzoz-89">
          <mxGeometry relative="1" as="geometry">
            <mxPoint x="2320" y="1252.5454545454545" as="targetPoint" />
          </mxGeometry>
        </mxCell>
        <mxCell id="N5ksJc3kJE1z810URzoz-86" value="Construct information updates sufficiently" style="whiteSpace=wrap;html=1;" vertex="1" parent="1">
          <mxGeometry x="2095" y="1255" width="130" height="65" as="geometry" />
        </mxCell>
        <mxCell id="N5ksJc3kJE1z810URzoz-88" value="False" style="text;html=1;align=center;verticalAlign=middle;resizable=0;points=[];autosize=1;strokeColor=none;fillColor=none;" vertex="1" parent="1">
          <mxGeometry x="2020" y="1255" width="50" height="30" as="geometry" />
        </mxCell>
        <mxCell id="N5ksJc3kJE1z810URzoz-89" value="End" style="ellipse;whiteSpace=wrap;html=1;" vertex="1" parent="1">
          <mxGeometry x="2340" y="1205" width="120" height="80" as="geometry" />
        </mxCell>
        <mxCell id="N5ksJc3kJE1z810URzoz-101" value="End" style="ellipse;whiteSpace=wrap;html=1;" vertex="1" parent="1">
          <mxGeometry x="1890" y="930" width="110" height="80" as="geometry" />
        </mxCell>
        <mxCell id="N5ksJc3kJE1z810URzoz-171" style="edgeStyle=orthogonalEdgeStyle;rounded=0;orthogonalLoop=1;jettySize=auto;html=1;exitX=1;exitY=0.5;exitDx=0;exitDy=0;entryX=0;entryY=0.5;entryDx=0;entryDy=0;" edge="1" parent="1" source="N5ksJc3kJE1z810URzoz-105" target="N5ksJc3kJE1z810URzoz-109">
          <mxGeometry relative="1" as="geometry" />
        </mxCell>
        <mxCell id="N5ksJc3kJE1z810URzoz-105" value="Change passcode" style="shape=parallelogram;perimeter=parallelogramPerimeter;whiteSpace=wrap;html=1;fixedSize=1;" vertex="1" parent="1">
          <mxGeometry x="1710" y="1470" width="170" height="70" as="geometry" />
        </mxCell>
        <mxCell id="N5ksJc3kJE1z810URzoz-111" value="" style="edgeStyle=orthogonalEdgeStyle;rounded=0;orthogonalLoop=1;jettySize=auto;html=1;" edge="1" parent="1" source="N5ksJc3kJE1z810URzoz-109" target="N5ksJc3kJE1z810URzoz-110">
          <mxGeometry relative="1" as="geometry" />
        </mxCell>
        <mxCell id="N5ksJc3kJE1z810URzoz-109" value="Conduct information updated sufficiently" style="rounded=0;whiteSpace=wrap;html=1;" vertex="1" parent="1">
          <mxGeometry x="1940" y="1480" width="120" height="60" as="geometry" />
        </mxCell>
        <mxCell id="N5ksJc3kJE1z810URzoz-110" value="End" style="ellipse;whiteSpace=wrap;html=1;rounded=0;" vertex="1" parent="1">
          <mxGeometry x="2110" y="1530" width="100" height="80" as="geometry" />
        </mxCell>
        <mxCell id="N5ksJc3kJE1z810URzoz-164" style="edgeStyle=orthogonalEdgeStyle;rounded=0;orthogonalLoop=1;jettySize=auto;html=1;exitX=1;exitY=0.5;exitDx=0;exitDy=0;entryX=0;entryY=0.5;entryDx=0;entryDy=0;" edge="1" parent="1" source="N5ksJc3kJE1z810URzoz-79" target="N5ksJc3kJE1z810URzoz-81">
          <mxGeometry relative="1" as="geometry" />
        </mxCell>
        <mxCell id="N5ksJc3kJE1z810URzoz-79" value="Change password&amp;nbsp;" style="shape=parallelogram;perimeter=parallelogramPerimeter;whiteSpace=wrap;html=1;fixedSize=1;" vertex="1" parent="1">
          <mxGeometry x="1620" y="1255" width="160" height="80" as="geometry" />
        </mxCell>
        <mxCell id="N5ksJc3kJE1z810URzoz-115" value="Contact us" style="shape=parallelogram;perimeter=parallelogramPerimeter;whiteSpace=wrap;html=1;fixedSize=1;" vertex="1" parent="1">
          <mxGeometry x="1270" y="1450" width="120" height="60" as="geometry" />
        </mxCell>
        <mxCell id="N5ksJc3kJE1z810URzoz-116" value="Security" style="shape=parallelogram;perimeter=parallelogramPerimeter;whiteSpace=wrap;html=1;fixedSize=1;" vertex="1" parent="1">
          <mxGeometry x="1720" y="1620" width="120" height="60" as="geometry" />
        </mxCell>
        <mxCell id="N5ksJc3kJE1z810URzoz-118" value="Terms and conditions" style="shape=parallelogram;perimeter=parallelogramPerimeter;whiteSpace=wrap;html=1;fixedSize=1;" vertex="1" parent="1">
          <mxGeometry x="1450" y="1160" width="180" height="110" as="geometry" />
        </mxCell>
        <mxCell id="N5ksJc3kJE1z810URzoz-119" value="False" style="text;html=1;align=center;verticalAlign=middle;resizable=0;points=[];autosize=1;strokeColor=none;fillColor=none;" vertex="1" parent="1">
          <mxGeometry x="580" y="736.88" width="50" height="30" as="geometry" />
        </mxCell>
        <mxCell id="N5ksJc3kJE1z810URzoz-121" value="End&amp;nbsp;" style="ellipse;whiteSpace=wrap;html=1;" vertex="1" parent="1">
          <mxGeometry x="300" y="900" width="120" height="80" as="geometry" />
        </mxCell>
        <mxCell id="N5ksJc3kJE1z810URzoz-122" value="True" style="text;html=1;align=center;verticalAlign=middle;resizable=0;points=[];autosize=1;strokeColor=none;fillColor=none;" vertex="1" parent="1">
          <mxGeometry x="630" y="638" width="50" height="30" as="geometry" />
        </mxCell>
        <mxCell id="N5ksJc3kJE1z810URzoz-124" value="Upload Document" style="shape=parallelogram;perimeter=parallelogramPerimeter;whiteSpace=wrap;html=1;fixedSize=1;" vertex="1" parent="1">
          <mxGeometry x="600" y="1270" width="170" height="110" as="geometry" />
        </mxCell>
        <mxCell id="N5ksJc3kJE1z810URzoz-130" value="False" style="text;html=1;align=center;verticalAlign=middle;resizable=0;points=[];autosize=1;strokeColor=none;fillColor=none;" vertex="1" parent="1">
          <mxGeometry x="660" y="1475" width="50" height="30" as="geometry" />
        </mxCell>
        <mxCell id="N5ksJc3kJE1z810URzoz-167" style="edgeStyle=orthogonalEdgeStyle;rounded=0;orthogonalLoop=1;jettySize=auto;html=1;exitX=1;exitY=0.5;exitDx=0;exitDy=0;entryX=0;entryY=0.5;entryDx=0;entryDy=0;" edge="1" parent="1" source="N5ksJc3kJE1z810URzoz-134" target="N5ksJc3kJE1z810URzoz-136">
          <mxGeometry relative="1" as="geometry" />
        </mxCell>
        <mxCell id="N5ksJc3kJE1z810URzoz-134" value="Attempts" style="rounded=0;whiteSpace=wrap;html=1;" vertex="1" parent="1">
          <mxGeometry x="830" y="1460" width="120" height="60" as="geometry" />
        </mxCell>
        <mxCell id="N5ksJc3kJE1z810URzoz-143" value="" style="edgeStyle=orthogonalEdgeStyle;rounded=0;orthogonalLoop=1;jettySize=auto;html=1;" edge="1" parent="1" source="N5ksJc3kJE1z810URzoz-140" target="N5ksJc3kJE1z810URzoz-142">
          <mxGeometry relative="1" as="geometry" />
        </mxCell>
        <mxCell id="N5ksJc3kJE1z810URzoz-140" value="New Updates" style="shape=parallelogram;perimeter=parallelogramPerimeter;whiteSpace=wrap;html=1;fixedSize=1;" vertex="1" parent="1">
          <mxGeometry x="540" y="1740" width="120" height="60" as="geometry" />
        </mxCell>
        <mxCell id="N5ksJc3kJE1z810URzoz-142" value="End" style="ellipse;whiteSpace=wrap;html=1;" vertex="1" parent="1">
          <mxGeometry x="690" y="1720" width="120" height="80" as="geometry" />
        </mxCell>
        <mxCell id="N5ksJc3kJE1z810URzoz-144" value="True" style="text;html=1;align=center;verticalAlign=middle;resizable=0;points=[];autosize=1;strokeColor=none;fillColor=none;" vertex="1" parent="1">
          <mxGeometry x="600" y="1580" width="50" height="30" as="geometry" />
        </mxCell>
        <mxCell id="N5ksJc3kJE1z810URzoz-145" value="FAQs" style="shape=parallelogram;perimeter=parallelogramPerimeter;whiteSpace=wrap;html=1;fixedSize=1;" vertex="1" parent="1">
          <mxGeometry x="1190" y="1650" width="120" height="60" as="geometry" />
        </mxCell>
        <mxCell id="N5ksJc3kJE1z810URzoz-149" value="Delete Account" style="shape=parallelogram;perimeter=parallelogramPerimeter;whiteSpace=wrap;html=1;fixedSize=1;" vertex="1" parent="1">
          <mxGeometry x="1300" y="1070" width="120" height="60" as="geometry" />
        </mxCell>
        <mxCell id="N5ksJc3kJE1z810URzoz-154" value="Log out" style="shape=parallelogram;perimeter=parallelogramPerimeter;whiteSpace=wrap;html=1;fixedSize=1;" vertex="1" parent="1">
          <mxGeometry x="1050" y="1550" width="120" height="60" as="geometry" />
        </mxCell>
        <mxCell id="N5ksJc3kJE1z810URzoz-136" value="End" style="ellipse;whiteSpace=wrap;html=1;rounded=0;" vertex="1" parent="1">
          <mxGeometry x="1000" y="1390" width="130" height="80" as="geometry" />
        </mxCell>
        <mxCell id="N5ksJc3kJE1z810URzoz-156" value="" style="edgeStyle=orthogonalEdgeStyle;rounded=0;orthogonalLoop=1;jettySize=auto;html=1;" edge="1" parent="1" source="N5ksJc3kJE1z810URzoz-125" target="N5ksJc3kJE1z810URzoz-138">
          <mxGeometry relative="1" as="geometry">
            <mxPoint x="760" y="1430" as="sourcePoint" />
            <mxPoint x="760" y="1560" as="targetPoint" />
            <Array as="points" />
          </mxGeometry>
        </mxCell>
        <mxCell id="N5ksJc3kJE1z810URzoz-159" style="edgeStyle=orthogonalEdgeStyle;rounded=0;orthogonalLoop=1;jettySize=auto;html=1;exitX=0.5;exitY=1;exitDx=0;exitDy=0;entryX=0.5;entryY=0;entryDx=0;entryDy=0;" edge="1" parent="1" source="N5ksJc3kJE1z810URzoz-138" target="N5ksJc3kJE1z810URzoz-140">
          <mxGeometry relative="1" as="geometry" />
        </mxCell>
        <mxCell id="N5ksJc3kJE1z810URzoz-138" value="construct information" style="whiteSpace=wrap;html=1;" vertex="1" parent="1">
          <mxGeometry x="545" y="1650" width="120" height="60" as="geometry" />
        </mxCell>
        <mxCell id="N5ksJc3kJE1z810URzoz-158" value="" style="edgeStyle=orthogonalEdgeStyle;rounded=0;orthogonalLoop=1;jettySize=auto;html=1;" edge="1" parent="1" source="N5ksJc3kJE1z810URzoz-124" target="N5ksJc3kJE1z810URzoz-125">
          <mxGeometry relative="1" as="geometry">
            <mxPoint x="845" y="1430" as="sourcePoint" />
            <mxPoint x="760" y="1590" as="targetPoint" />
            <Array as="points" />
          </mxGeometry>
        </mxCell>
        <mxCell id="N5ksJc3kJE1z810URzoz-160" style="edgeStyle=orthogonalEdgeStyle;rounded=0;orthogonalLoop=1;jettySize=auto;html=1;exitX=1;exitY=0.5;exitDx=0;exitDy=0;entryX=0;entryY=0.5;entryDx=0;entryDy=0;" edge="1" parent="1" source="N5ksJc3kJE1z810URzoz-125" target="N5ksJc3kJE1z810URzoz-134">
          <mxGeometry relative="1" as="geometry">
            <Array as="points">
              <mxPoint x="790" y="1500" />
            </Array>
          </mxGeometry>
        </mxCell>
        <mxCell id="N5ksJc3kJE1z810URzoz-125" value="KYC" style="rhombus;whiteSpace=wrap;html=1;" vertex="1" parent="1">
          <mxGeometry x="565" y="1460" width="80" height="80" as="geometry" />
        </mxCell>
        <mxCell id="N5ksJc3kJE1z810URzoz-161" style="edgeStyle=orthogonalEdgeStyle;rounded=0;orthogonalLoop=1;jettySize=auto;html=1;exitX=0.75;exitY=1;exitDx=0;exitDy=0;entryX=0.606;entryY=-0.038;entryDx=0;entryDy=0;entryPerimeter=0;" edge="1" parent="1" source="N5ksJc3kJE1z810URzoz-77" target="N5ksJc3kJE1z810URzoz-115">
          <mxGeometry relative="1" as="geometry" />
        </mxCell>
        <mxCell id="N5ksJc3kJE1z810URzoz-172" style="edgeStyle=orthogonalEdgeStyle;rounded=0;orthogonalLoop=1;jettySize=auto;html=1;exitX=0.5;exitY=0;exitDx=0;exitDy=0;entryX=0.325;entryY=0.971;entryDx=0;entryDy=0;entryPerimeter=0;" edge="1" parent="1" source="N5ksJc3kJE1z810URzoz-83" target="N5ksJc3kJE1z810URzoz-101">
          <mxGeometry relative="1" as="geometry">
            <Array as="points">
              <mxPoint x="1930" y="1008" />
            </Array>
          </mxGeometry>
        </mxCell>
        <mxCell id="N5ksJc3kJE1z810URzoz-175" style="edgeStyle=orthogonalEdgeStyle;rounded=0;orthogonalLoop=1;jettySize=auto;html=1;exitX=1;exitY=0.5;exitDx=0;exitDy=0;entryX=-0.043;entryY=0.568;entryDx=0;entryDy=0;entryPerimeter=0;" edge="1" parent="1" source="N5ksJc3kJE1z810URzoz-81" target="N5ksJc3kJE1z810URzoz-86">
          <mxGeometry relative="1" as="geometry" />
        </mxCell>
      </root>
    </mxGraphModel>
  </diagram>
</mxfile>
